<svg
        xmlns="http://www.w3.org/2000/svg"
        viewBox="0 0 40 40"
        fill="none"
      >
        <g clipPath="url(#clip0_77_2996)">
          <path
            d="M39.4009 24.8378C36.7295 35.5517 25.8761 42.0726 15.1594 39.4008C4.44745 36.7298 -2.0735 25.8776 0.599422 15.1638C3.26921 4.44836 14.1226 -2.07261 24.8362 0.598434C35.5521 3.26948 42.073 14.1232 39.4016 24.8378H39.4009Z"
            fill="#F7931A"
          />
          <path
            d="M28.8186 17.1505C29.217 14.4896 27.1903 13.0584 24.4197 12.1045L25.3182 8.49986L23.1235 7.953L22.2484 11.4631C21.6718 11.3193 21.0787 11.1834 20.4904 11.049L21.3717 7.51629L19.1785 6.96942L18.2792 10.5733C17.8019 10.4647 17.3331 10.3569 16.8775 10.2436L16.8799 10.2326L13.853 9.47718L13.2694 11.8209C13.2694 11.8209 14.8977 12.1943 14.8633 12.217C15.7524 12.4388 15.9126 13.0271 15.886 13.4935L13.4233 23.3691C13.3147 23.6394 13.0389 24.0441 12.4177 23.8902C12.4396 23.9222 10.8223 23.4918 10.8223 23.4918L9.73309 26.0034L12.5888 26.7151C13.1201 26.8479 13.6405 26.9878 14.1531 27.119L13.2452 30.765L15.4376 31.3119L16.3369 27.7042C16.9354 27.8667 17.5167 28.0167 18.0855 28.1581L17.1893 31.7486L19.384 32.2955L20.2919 28.6565C24.0345 29.3643 26.848 29.0791 28.0325 25.6948C28.9873 22.9699 27.9849 21.398 26.0159 20.3731C27.4497 20.0426 28.5302 19.0997 28.8178 17.1513L28.8186 17.1505ZM23.8048 24.1808C23.1266 26.9058 18.5379 25.4323 17.0502 25.0636L18.255 20.2332C19.7427 20.6043 24.5134 21.3395 23.804 24.1816L23.8048 24.1808ZM24.4838 17.1114C23.8649 19.5903 20.0458 18.3309 18.8066 18.0223L19.8989 13.6412C21.1381 13.9498 25.1276 14.5263 24.483 17.1114H24.4838Z"
            fill="white"
          />
        </g>
        <defs>
          <clipPath id="clip0_77_2996">
            <rect width="40" height="40" fill="white" />
          </clipPath>
        </defs>
      </svg>