<svg
        xmlns="http://www.w3.org/2000/svg"
        viewBox="0 0 40 40" 
        fill="none"
      >
        <g clip-path="url(#clip0_528_1172)">
          <path
            d="M20 0C31.0462 0 40 8.95385 40 20C40 31.0462 31.0462 40 20 40C8.95385 40 0 31.0462 0 20C0 8.95385 8.95385 0 20 0Z"
            fill="#FF6634"
          />
          <path
            fill-rule="evenodd"
            clip-rule="evenodd"
            d="M23.4037 16.6769C23.3304 16.5509 23.3407 16.3941 23.4242 16.2681L26.9158 11.0872C27.0095 10.9406 27.0198 10.7633 26.9363 10.6168C26.8528 10.46 26.696 10.3765 26.529 10.3765H25.1692C25.0227 10.3765 24.8762 10.4498 24.7824 10.5861L20.7048 16.6578C20.6007 16.8146 20.4322 16.8981 20.2447 16.8981H19.7319C19.5443 16.8981 19.3758 16.8044 19.2718 16.6578L15.2147 10.5758C15.1311 10.4395 14.9744 10.3663 14.8279 10.3663H13.4681C13.3011 10.3663 13.1341 10.46 13.0608 10.6168C12.9773 10.7736 12.9978 10.9524 13.0813 11.0872L16.5729 16.2798C16.6564 16.3956 16.6667 16.5524 16.5934 16.6769C16.5202 16.8132 16.3942 16.8864 16.2476 16.8864H10.9055C10.6447 16.8864 10.4454 17.0959 10.4454 17.3465V18.4762C10.4454 18.7384 10.655 18.9362 10.9055 18.9362H29.0872C29.348 18.9362 29.5473 18.7267 29.5473 18.4762V17.3465C29.5473 17.1062 29.37 16.9172 29.1399 16.8864H23.7451C23.5985 16.8864 23.4623 16.8132 23.3993 16.6769H23.4037ZM19.2835 23.3436L15.2059 29.4154C15.1224 29.5516 14.9656 29.6249 14.8191 29.6249H13.4594C13.2923 29.6249 13.1355 29.5311 13.052 29.3846C12.9685 29.2381 12.9788 29.0491 13.0725 28.9143L16.5539 23.7333C16.6374 23.6073 16.6476 23.4608 16.5744 23.3245C16.5011 23.1985 16.3751 23.115 16.2286 23.115H10.907C10.6564 23.115 10.4469 22.9157 10.4469 22.6549V21.5252C10.4469 21.2732 10.6462 21.0652 10.907 21.0652H29.0887C29.3392 21.0652 29.5487 21.2644 29.5487 21.5252V22.6549C29.5487 22.9055 29.3495 23.115 29.0887 23.115H23.7568C23.6 23.115 23.474 23.1882 23.411 23.3245C23.3377 23.4608 23.348 23.6073 23.4315 23.7216L26.9231 28.9128C27.0066 29.0491 27.0271 29.2263 26.9436 29.3831C26.8601 29.5399 26.7033 29.6337 26.5363 29.6337H25.1766C25.0198 29.6337 24.8835 29.5604 24.8 29.4344L20.7224 23.3626C20.6183 23.2058 20.4498 23.1223 20.2623 23.1223H19.7495C19.5619 23.1223 19.3934 23.2161 19.2894 23.3626L19.2791 23.3421L19.2835 23.3436Z"
            fill="white"
          />
        </g>
        <defs>
          <clipPath id="clip0_528_1172">
            <rect width="40" height="40" fill="white" />
          </clipPath>
        </defs>
      </svg>